<svg width="153" height="167" viewBox="0 0 153 167" fill="none" xmlns="http://www.w3.org/2000/svg">
<path d="M7.19727 13.5897H11.5586V15.4696H7.19727V20.411H5.19922V15.4696H0.837891V13.5897H5.19922V9.02429H7.19727V13.5897Z" fill="#FF7152"/>
<path d="M7.19727 48.5897H11.5586V50.4696H7.19727V55.411H5.19922V50.4696H0.837891V48.5897H5.19922V44.0243H7.19727V48.5897Z" fill="#E5E5E5"/>
<path d="M7.19727 83.5897H11.5586V85.4696H7.19727V90.411H5.19922V85.4696H0.837891V83.5897H5.19922V79.0243H7.19727V83.5897Z" fill="#E5E5E5"/>
<path d="M42.1973 13.5897H46.5586V15.4696H42.1973V20.411H40.1992V15.4696H35.8379V13.5897H40.1992V9.02429H42.1973V13.5897Z" fill="#E5E5E5"/>
<path d="M42.1973 48.5897H46.5586V50.4696H42.1973V55.411H40.1992V50.4696H35.8379V48.5897H40.1992V44.0243H42.1973V48.5897Z" fill="#E5E5E5"/>
<path d="M42.1973 83.5897H46.5586V85.4696H42.1973V90.411H40.1992V85.4696H35.8379V83.5897H40.1992V79.0243H42.1973V83.5897Z" fill="#E5E5E5"/>
<path d="M42.1973 118.59H46.5586V120.47H42.1973V125.411H40.1992V120.47H35.8379V118.59H40.1992V114.024H42.1973V118.59Z" fill="#E5E5E5"/>
<path d="M77.1973 13.5897H81.5586V15.4696H77.1973V20.411H75.1992V15.4696H70.8379V13.5897H75.1992V9.02429H77.1973V13.5897Z" fill="#E5E5E5"/>
<path d="M77.1973 48.5897H81.5586V50.4696H77.1973V55.411H75.1992V50.4696H70.8379V48.5897H75.1992V44.0243H77.1973V48.5897Z" fill="#E5E5E5"/>
<path d="M77.1973 83.5897H81.5586V85.4696H77.1973V90.411H75.1992V85.4696H70.8379V83.5897H75.1992V79.0243H77.1973V83.5897Z" fill="#6246E5"/>
<path d="M77.1973 118.59H81.5586V120.47H77.1973V125.411H75.1992V120.47H70.8379V118.59H75.1992V114.024H77.1973V118.59Z" fill="#E5E5E5"/>
<path d="M77.1973 153.59H81.5586V155.47H77.1973V160.411H75.1992V155.47H70.8379V153.59H75.1992V149.024H77.1973V153.59Z" fill="#E5E5E5"/>
<path d="M112.197 13.5897H116.559V15.4696H112.197V20.411H110.199V15.4696H105.838V13.5897H110.199V9.02429H112.197V13.5897Z" fill="#E5E5E5"/>
<path d="M112.197 48.5897H116.559V50.4696H112.197V55.411H110.199V50.4696H105.838V48.5897H110.199V44.0243H112.197V48.5897Z" fill="#E5E5E5"/>
<path d="M112.197 83.5897H116.559V85.4696H112.197V90.411H110.199V85.4696H105.838V83.5897H110.199V79.0243H112.197V83.5897Z" fill="#E5E5E5"/>
<path d="M112.197 118.59H116.559V120.47H112.197V125.411H110.199V120.47H105.838V118.59H110.199V114.024H112.197V118.59Z" fill="#E5E5E5"/>
<path d="M112.197 153.59H116.559V155.47H112.197V160.411H110.199V155.47H105.838V153.59H110.199V149.024H112.197V153.59Z" fill="#E5E5E5"/>
<path d="M147.197 13.5897H151.559V15.4696H147.197V20.411H145.199V15.4696H140.838V13.5897H145.199V9.02429H147.197V13.5897Z" fill="#E5E5E5"/>
<path d="M147.197 48.5897H151.559V50.4696H147.197V55.411H145.199V50.4696H140.838V48.5897H145.199V44.0243H147.197V48.5897Z" fill="#E5E5E5"/>
<path d="M147.197 83.5897H151.559V85.4696H147.197V90.411H145.199V85.4696H140.838V83.5897H145.199V79.0243H147.197V83.5897Z" fill="#E5E5E5"/>
<path d="M147.197 118.59H151.559V120.47H147.197V125.411H145.199V120.47H140.838V118.59H145.199V114.024H147.197V118.59Z" fill="#E5E5E5"/>
<path d="M147.197 153.59H151.559V155.47H147.197V160.411H145.199V155.47H140.838V153.59H145.199V149.024H147.197V153.59Z" fill="#E5E5E5"/>
</svg>
