<svg width="98" height="254" viewBox="0 0 98 254" fill="none" xmlns="http://www.w3.org/2000/svg">
<path d="M9.17691 13.9834C16.2037 5.46697 33.9715 -7.62701 48.8282 8.12835C63.6848 23.8837 43.6417 53.3718 31.7631 66.1464C25.9074 69.6949 13.6941 75.7274 11.6865 71.4692C9.17691 66.1464 7.67116 54.9686 28.2497 45.3877C41.4667 39.7101 70.009 33.6776 78.4411 54.9686C82.2891 64.1948 82.9583 85.6277 54.8511 97.5507L19.7171 112.987M19.7171 112.987C6.33273 113.523 -12.9073 107.141 17.2075 77.3242C26.7439 72.7112 49.832 63.3786 65.8933 62.9528C75.0951 64.9045 92.7959 74.5564 89.9852 97.5507C90.3198 102.164 84.0626 113.625 56.3569 122.568C49.9993 123.987 35.7784 126.932 29.7555 127.358L8.17314 130.552L19.7171 112.987ZM19.7171 112.987C28.4996 110.503 49.2272 106.28 61.878 109.261C77.6914 112.987 83.9622 109.793 96.5101 130.552C98.6851 141.197 97.1124 163.021 73.422 165.15C49.7317 167.279 34.44 163.198 29.7555 160.892V141.197M29.7555 141.197C46.9879 142.794 83.9622 141.623 94.0005 124.164C98.8524 111.745 99.2204 86.3729 61.878 84.2438C52.8435 84.5987 33.57 85.7342 28.7516 87.4375L29.7555 125.229C47.3225 126.826 84.2634 134.384 91.491 151.843C95.339 161.956 96.6105 183.247 70.9125 187.505C61.3761 187.86 39.7938 186.547 29.7555 178.457M29.7555 141.197V178.457M29.7555 141.197C40.6303 143.859 64.5883 151.204 73.422 159.295C84.1295 168.166 99.8227 190.167 76.9354 207.2C69.7413 209.861 50.635 211.99 31.7631 199.215M29.7555 178.457L31.7631 199.215M29.7555 178.457C41.8014 186.973 66.3952 207.625 68.4029 222.103C69.2394 230.975 66.9976 249.462 51.3378 252.443C47.3225 253.153 37.3846 253.082 29.7555 247.12L31.7631 199.215" stroke="#84829A"/>
</svg>
