<svg width="14" height="17" viewBox="0 0 14 17" fill="none" xmlns="http://www.w3.org/2000/svg">
<path d="M4.75289 16.8329C2.37161 16.8191 0.401855 11.9581 0.401855 9.48254C0.401855 5.43867 3.43545 4.55336 4.60457 4.55336C5.13145 4.55336 5.69404 4.76026 6.19026 4.94336C6.53726 5.07107 6.89614 5.20292 7.09573 5.20292C7.2152 5.20292 7.49673 5.09076 7.74529 4.99236C8.27539 4.78132 8.93501 4.51904 9.70314 4.51904C9.70451 4.51904 9.70636 4.51904 9.7077 4.51904C10.2813 4.51904 12.0203 4.64492 13.0659 6.21504L13.3108 6.58307L12.9583 6.84904C12.4548 7.22898 11.536 7.92204 11.536 9.29489C11.536 10.9209 12.5765 11.5462 13.0764 11.8469C13.297 11.9797 13.5255 12.1165 13.5255 12.4159C13.5255 12.6114 11.9654 16.8086 9.69992 16.8086C9.14558 16.8086 8.75373 16.642 8.40811 16.495C8.05839 16.3463 7.7567 16.2181 7.2582 16.2181C7.00551 16.2181 6.68598 16.3376 6.3477 16.4644C5.88542 16.6369 5.36217 16.8329 4.76845 16.8329H4.75289Z" fill="white"/>
<path d="M9.94316 0.833008C10.0022 2.96038 8.48075 4.43626 6.96112 4.3437C6.71071 2.64598 8.48056 0.833008 9.94316 0.833008Z" fill="white"/>
</svg>
