<svg width="18" height="18" viewBox="0 0 18 18" fill="none" xmlns="http://www.w3.org/2000/svg">
<g clip-path="url(#clip0)">
<path d="M10.1859 9.33432L1.64886 17.5549C1.24908 17.2817 1.01173 16.8272 1.01592 16.343V2.32561C1.01173 1.84143 1.24908 1.38698 1.64886 1.11377L10.1859 9.33432Z" fill="#2196F3"/>
<path d="M13.1731 6.4631L10.1859 9.33451L1.64893 1.11396C1.68109 1.08903 1.7146 1.06584 1.74926 1.04449C2.20045 0.771027 2.76402 0.762199 3.22357 1.02133L13.1731 6.4631Z" fill="#4CAF50"/>
<path d="M16.7931 9.33429C16.7987 9.8809 16.5016 10.3858 16.0212 10.6465L13.173 12.2057L10.1858 9.33429L13.173 6.46289L16.0212 8.02208C16.5016 8.28281 16.7987 8.78769 16.7931 9.33429Z" fill="#F0BB1F"/>
<path d="M13.1731 12.2059L3.22357 17.6476C2.76301 17.9028 2.20157 17.8939 1.74926 17.6245C1.7146 17.6031 1.68109 17.58 1.64893 17.555L10.186 9.33447L13.1731 12.2059Z" fill="#F15A2B"/>
</g>
<defs>
<clipPath id="clip0">
<rect width="17" height="17" fill="white" transform="translate(0.404541 0.833008)"/>
</clipPath>
</defs>
</svg>
