<svg width="96" height="29" viewBox="0 0 96 29" fill="none" xmlns="http://www.w3.org/2000/svg">
<path d="M61.8135 23.5735L69.6949 26.0624L76.3319 19.4254L84.6281 25.2328L93.3391 23.5735L89.6058 11.544L76.3319 15.6921L68.8653 11.544L60.9839 12.7885L61.8135 23.5735Z" fill="#F1A501"/>
<path d="M0.355225 19.4785V17.6848L5.43084 16.7689V19.2495C5.45628 20.5979 5.79975 21.6156 6.46123 22.3025C7.14816 22.964 8.05134 23.2947 9.17077 23.2947C10.2648 23.2947 11.1298 22.9386 11.7658 22.2262C12.4273 21.5138 12.7581 20.5598 12.7581 19.364V0.664356H18.0245V19.364C18.0245 21.8573 17.1976 23.9689 15.5439 25.699C13.8902 27.429 11.7785 28.294 9.20893 28.294C6.53756 28.294 4.38773 27.4926 2.75946 25.8898C1.15664 24.2615 0.355225 22.1244 0.355225 19.4785Z" fill="black"/>
<path d="M19.2346 22.6078C19.2346 21.005 19.7562 19.7202 20.7993 18.7534C21.8424 17.7866 23.1908 17.176 24.8445 16.9216L29.4622 16.2347C30.4036 16.1075 30.8742 15.6622 30.8742 14.899C30.8742 14.1866 30.5944 13.6015 30.0346 13.1435C29.5004 12.6856 28.7244 12.4566 27.7067 12.4566C26.6382 12.4566 25.7859 12.7492 25.1498 13.3343C24.5392 13.9195 24.1958 14.6446 24.1195 15.5096L19.6163 14.5555C19.7944 12.9273 20.5958 11.4898 22.0205 10.2432C23.4452 8.99651 25.3279 8.37319 27.6686 8.37319C30.4672 8.37319 32.5279 9.04739 33.8509 10.3958C35.1739 11.7188 35.8354 13.4234 35.8354 15.5096V24.7449C35.8354 25.8644 35.9117 26.8566 36.0643 27.7216H31.4085C31.2813 27.1619 31.2177 26.4114 31.2177 25.47C30.0219 27.3273 28.1774 28.2559 25.6841 28.2559C23.7505 28.2559 22.1859 27.6962 20.9901 26.5767C19.8198 25.4573 19.2346 24.1343 19.2346 22.6078ZM26.7527 24.4778C27.9484 24.4778 28.9279 24.147 29.6912 23.4856C30.4799 22.7986 30.8742 21.6792 30.8742 20.1273V19.2877L26.6382 19.9364C25.0862 20.1654 24.3103 20.9541 24.3103 22.3025C24.3103 22.9131 24.5265 23.4347 24.959 23.8672C25.3915 24.2742 25.9894 24.4778 26.7527 24.4778Z" fill="black"/>
<path d="M55.7222 0.0919189V24.3251C55.7222 25.5718 55.7731 26.7039 55.8749 27.7216H51.0282C50.901 27.0856 50.8374 26.3605 50.8374 25.5463C50.4049 26.335 49.718 26.9711 48.7766 27.4545C47.8607 27.9379 46.7922 28.1795 45.571 28.1795C42.8996 28.1795 40.6989 27.2509 38.9689 25.3937C37.2643 23.511 36.412 21.1449 36.412 18.2955C36.412 15.5223 37.2515 13.1944 38.9307 11.3117C40.6353 9.42902 42.7978 8.48768 45.4183 8.48768C48.1151 8.48768 49.8833 9.26365 50.7229 10.8156V0.0919189H55.7222ZM41.5257 18.2955C41.5257 19.9492 41.9583 21.2594 42.8233 22.2262C43.6883 23.1675 44.8077 23.6382 46.1816 23.6382C47.53 23.6382 48.6367 23.1548 49.5017 22.188C50.3667 21.2212 50.7992 19.911 50.7992 18.2573C50.7992 16.629 50.3667 15.3569 49.5017 14.441C48.6367 13.4997 47.53 13.029 46.1816 13.029C44.8332 13.029 43.7137 13.4997 42.8233 14.441C41.9583 15.3824 41.5257 16.6672 41.5257 18.2955Z" fill="black"/>
<path d="M63.2128 22.2644C64.1541 23.2057 65.2863 23.6764 66.6093 23.6764C67.9322 23.6764 69.0517 23.2057 69.9676 22.2644C70.9089 21.323 71.3796 20.0128 71.3796 18.3336C71.3796 16.6545 70.9089 15.3442 69.9676 14.4029C69.0517 13.4615 67.9322 12.9909 66.6093 12.9909C65.2863 12.9909 64.1541 13.4615 63.2128 14.4029C62.2969 15.3442 61.839 16.6545 61.839 18.3336C61.839 20.0128 62.2969 21.323 63.2128 22.2644ZM59.5492 11.1972C61.4319 9.31453 63.7852 8.37319 66.6093 8.37319C69.4333 8.37319 71.7739 9.31453 73.6312 11.1972C75.5139 13.0799 76.4552 15.4587 76.4552 18.3336C76.4552 21.2085 75.5139 23.5873 73.6312 25.47C71.7739 27.3527 69.4333 28.294 66.6093 28.294C63.7852 28.294 61.4319 27.3527 59.5492 25.47C57.692 23.5873 56.7633 21.2085 56.7633 18.3336C56.7633 15.4587 57.692 13.0799 59.5492 11.1972Z" fill="black"/>
<path d="M82.4461 22.2644C83.3875 23.2057 84.5196 23.6764 85.8426 23.6764C87.1656 23.6764 88.285 23.2057 89.2009 22.2644C90.1422 21.323 90.6129 20.0128 90.6129 18.3336C90.6129 16.6545 90.1422 15.3442 89.2009 14.4029C88.285 13.4615 87.1656 12.9909 85.8426 12.9909C84.5196 12.9909 83.3875 13.4615 82.4461 14.4029C81.5302 15.3442 81.0723 16.6545 81.0723 18.3336C81.0723 20.0128 81.5302 21.323 82.4461 22.2644ZM78.7825 11.1972C80.6652 9.31453 83.0186 8.37319 85.8426 8.37319C88.6666 8.37319 91.0073 9.31453 92.8645 11.1972C94.7472 13.0799 95.6885 15.4587 95.6885 18.3336C95.6885 21.2085 94.7472 23.5873 92.8645 25.47C91.0073 27.3527 88.6666 28.294 85.8426 28.294C83.0186 28.294 80.6652 27.3527 78.7825 25.47C76.9253 23.5873 75.9967 21.2085 75.9967 18.3336C75.9967 15.4587 76.9253 13.0799 78.7825 11.1972Z" fill="black"/>
</svg>
