<?xml version="1.0" encoding="utf-8"?>
<!-- Generator: Adobe Illustrator 25.2.3, SVG Export Plug-In . SVG Version: 6.00 Build 0)  -->
<svg version="1.1" id="Calque_1" xmlns="http://www.w3.org/2000/svg" xmlns:xlink="http://www.w3.org/1999/xlink" x="0px" y="0px"
	 viewBox="0 0 127 132" style="enable-background:new 0 0 127 132;" xml:space="preserve">
<style type="text/css">
	.st0{fill:#FFFFFF;}
	.st1{fill:#ED6E52;}
</style>
<g>
	<path class="st0" d="M64.26,5.36C29.29,5.36,5.8,17.08,5.8,28.02c0,10.94,23.49,22.66,58.46,22.66c31.69,0,53.96-9.62,57.85-19.57
		c0.4-1.03,0.61-2.06,0.61-3.09C122.72,17.08,99.23,5.36,64.26,5.36z M64.09,37.17c-15.16,0-27.45-4.1-27.45-9.15
		c0-5.05,12.29-9.15,27.45-9.15c15.16,0,27.45,4.1,27.45,9.15C91.54,33.07,79.25,37.17,64.09,37.17z"/>
	<path class="st0" d="M92.81,72.09c-12.1-3.46-21.03-8.2-28.55-15.19c-7.52,6.99-16.45,11.73-28.55,15.19
		c-8.01,2.29-16.89,3.56-24.99,3.56h0c-1.7,0-3.34-0.06-4.92-0.17v29.08c0,10.94,23.49,22.66,58.46,22.66s58.46-11.71,58.46-22.66
		V75.47c-1.58,0.11-3.22,0.17-4.92,0.17C109.7,75.64,100.82,74.38,92.81,72.09z M25.54,109.57c-4.59,0-8.32-3.75-8.32-8.38
		c0-4.63,3.72-8.38,8.32-8.38c4.59,0,8.32,3.75,8.32,8.38C33.85,105.82,30.13,109.57,25.54,109.57z M51.12,97.31
		C44.37,82.97,25.99,84.8,25.81,84.82c-1.39,0.15-2.63-0.86-2.78-2.25c-0.15-1.39,0.85-2.65,2.23-2.8c0.9-0.1,22.14-2.2,30.41,15.36
		c0.6,1.27,0.06,2.78-1.2,3.38c-0.35,0.17-0.72,0.25-1.08,0.25C52.46,98.76,51.55,98.22,51.12,97.31z M64.09,120.83
		c-5.97,0-10.83-4.9-10.83-10.92c0-1.4,1.13-2.54,2.52-2.54c1.39,0,2.52,1.14,2.52,2.54c0,3.22,2.6,5.84,5.8,5.84
		c3.2,0,5.8-2.62,5.8-5.84c0-1.4,1.13-2.54,2.52-2.54s2.52,1.14,2.52,2.54C74.93,115.93,70.06,120.83,64.09,120.83z M77.23,97.31
		c-0.43,0.91-1.34,1.45-2.28,1.45c-0.36,0-0.73-0.08-1.08-0.25c-1.26-0.6-1.79-2.12-1.2-3.38c8.27-17.56,29.51-15.46,30.41-15.36
		c1.38,0.15,2.38,1.4,2.23,2.8c-0.15,1.39-1.39,2.4-2.77,2.25C101.77,84.74,83.95,83.04,77.23,97.31z M102.81,109.57
		c-4.59,0-8.32-3.75-8.32-8.38c0-4.63,3.72-8.38,8.32-8.38c4.59,0,8.32,3.75,8.32,8.38C111.13,105.82,107.4,109.57,102.81,109.57z"
		/>
	<path d="M64.26,0.29c-35.61,0-63.5,12.18-63.5,27.74v46.93v29.6c0,15.55,27.89,27.73,63.5,27.73c35.61,0,63.5-12.18,63.5-27.73
		v-29.6V28.02C127.76,12.47,99.87,0.29,64.26,0.29z M122.72,104.55c0,10.94-23.49,22.66-58.46,22.66S5.8,115.49,5.8,104.55V75.47
		c1.58,0.11,3.22,0.17,4.92,0.17h0c8.1,0,16.98-1.26,24.99-3.56c12.1-3.46,21.03-8.2,28.55-15.19c7.52,6.99,16.45,11.73,28.55,15.19
		c8.01,2.29,16.89,3.56,24.99,3.56c1.7,0,3.34-0.06,4.92-0.17V104.55z M122.11,31.11c-3.9,9.95-26.16,19.57-57.85,19.57
		C29.29,50.68,5.8,38.96,5.8,28.02c0-10.94,23.49-22.66,58.46-22.66s58.46,11.72,58.46,22.66
		C122.72,29.05,122.51,30.08,122.11,31.11z"/>
	<path d="M54.48,98.51c1.26-0.6,1.79-2.11,1.2-3.38C47.4,77.57,26.16,79.67,25.27,79.77c-1.38,0.15-2.38,1.4-2.23,2.8
		c0.15,1.39,1.39,2.4,2.78,2.25c0.18-0.02,18.56-1.85,25.31,12.49c0.43,0.91,1.34,1.45,2.28,1.45
		C53.76,98.76,54.13,98.68,54.48,98.51z"/>
	<path class="st1" d="M25.54,92.81c-4.59,0-8.32,3.75-8.32,8.38c0,4.63,3.72,8.38,8.32,8.38c4.59,0,8.32-3.75,8.32-8.38
		C33.85,96.56,30.13,92.81,25.54,92.81z"/>
	<path d="M72.41,107.37c-1.39,0-2.52,1.14-2.52,2.54c0,3.22-2.6,5.84-5.8,5.84c-3.2,0-5.8-2.62-5.8-5.84c0-1.4-1.13-2.54-2.52-2.54
		c-1.39,0-2.52,1.14-2.52,2.54c0,6.02,4.86,10.92,10.83,10.92s10.84-4.9,10.84-10.92C74.93,108.51,73.8,107.37,72.41,107.37z"/>
	<path d="M102.54,84.82c1.38,0.15,2.62-0.86,2.77-2.25c0.15-1.39-0.85-2.65-2.23-2.8c-0.9-0.1-22.14-2.2-30.41,15.36
		c-0.6,1.27-0.06,2.78,1.2,3.38c0.35,0.17,0.72,0.25,1.08,0.25c0.94,0,1.85-0.54,2.28-1.45C83.95,83.04,101.77,84.74,102.54,84.82z"
		/>
	<path class="st1" d="M102.81,92.81c-4.59,0-8.32,3.75-8.32,8.38c0,4.63,3.72,8.38,8.32,8.38c4.59,0,8.32-3.75,8.32-8.38
		C111.13,96.56,107.4,92.81,102.81,92.81z"/>
	<path class="st1" d="M64.09,18.87c-15.16,0-27.45,4.1-27.45,9.15c0,5.05,12.29,9.15,27.45,9.15c15.16,0,27.45-4.1,27.45-9.15
		C91.54,22.97,79.25,18.87,64.09,18.87z"/>
</g>
</svg>
