<svg width="376" height="13" viewBox="0 0 376 13" fill="none" xmlns="http://www.w3.org/2000/svg">
<path d="M54.5375 -2.35989L55.4784 -2.51807L53.6474 -2.74485L54.5251 -2.91085C55.4053 -2.90933 56.5457 -2.66059 57.1662 -2.79276C57.242 -2.92072 56.2836 -2.96179 56.0391 -3.06374C55.8227 -3.16824 55.646 -3.27206 55.5113 -3.37395C55.9906 -3.37285 56.5176 -3.34821 57.0609 -3.30146C57.7918 -3.22512 58.5086 -3.188 59.1323 -3.19422C60.4078 -3.1736 61.64 -3.19417 63.0267 -3.18964L62.5654 -3.4976L64.3525 -3.42555C64.5419 -3.40209 64.7677 -3.43982 64.9538 -3.4108C66.5027 -3.16522 67.158 -3.29904 67.9016 -3.41C68.054 -3.43871 68.2377 -3.46015 68.4476 -3.47375C70.5138 -3.41492 72.3769 -3.07071 74.2376 -2.894C74.5879 -2.84888 74.9238 -2.79097 75.2215 -2.72436C75.8687 -2.59488 76.5886 -2.48917 77.3154 -2.4169C78.0422 -2.34462 78.7525 -2.30809 79.3817 -2.31064C80.7728 -2.3135 82.3445 -2.22786 83.9447 -2.06201C84.4206 -2.00738 84.8967 -1.97134 85.3429 -1.95619C85.789 -1.94104 86.1953 -1.9471 86.5358 -1.974L87.6177 -1.7982C88.0867 -1.86954 88.6813 -1.90868 89.3655 -1.91324C90.0498 -1.9178 90.8094 -1.8877 91.5982 -1.82476C92.4388 -1.75648 93.2926 -1.71045 94.1648 -1.63827C95.9664 -1.50025 97.7198 -1.41585 99.3705 -1.38768C101.829 -1.30418 104.23 -1.23963 106.71 -1.13554C108.262 -1.08529 109.773 -1.05766 111.236 -1.05278C112.988 -1.03312 114.883 -0.937984 116.83 -0.771948C116.738 -0.616169 115.884 -0.662191 115.311 -0.667463C113.463 -0.693355 111.571 -0.760449 109.669 -0.810851C108.813 -0.830525 107.98 -0.837977 107.175 -0.833152C105.83 -0.83961 104.411 -0.881117 102.944 -0.956966C100.627 -1.04043 98.3843 -1.08054 96.2381 -1.07691C96.0699 -1.07074 95.9157 -1.05981 95.7782 -1.04429C95.7495 -1.03086 95.7439 -1.01391 95.7618 -0.995083C95.7797 -0.976258 95.8206 -0.956175 95.8805 -0.936767C95.9404 -0.91736 96.0173 -0.899277 96.1039 -0.884244C96.1906 -0.869208 96.2841 -0.857726 96.3753 -0.850902C97.2277 -0.74533 98.1432 -0.631943 98.947 -0.615993C98.9781 -0.614799 99.0112 -0.612078 99.044 -0.60802C99.0767 -0.603963 99.1083 -0.598671 99.1365 -0.592533C100.936 -0.36966 102.416 -0.407375 103.817 -0.371114C106.145 -0.273114 108.388 -0.227338 110.514 -0.234477C110.835 -0.233992 111.182 -0.221252 111.542 -0.196719C113.768 -0.0972694 115.85 -0.0861465 117.69 -0.163853C118.447 -0.183541 119.151 -0.227735 119.965 -0.228474C120.466 -0.231515 120.902 -0.259718 121.247 -0.311393C121.592 -0.363069 121.839 -0.437148 121.973 -0.529176C122.316 -0.480724 122.665 -0.437543 123.015 -0.40015C123.224 -0.378769 123.424 -0.373089 123.575 -0.384278C123.727 -0.395466 123.818 -0.422686 123.83 -0.460431C123.893 -0.566139 123.416 -0.619224 123.002 -0.664491C123.251 -0.687161 123.533 -0.700498 123.839 -0.70418C125.563 -0.728334 127.412 -0.699826 129.346 -0.619282C130.848 -0.522873 132.046 -0.601343 133.626 -0.465387C133.816 -0.441926 133.972 -0.47636 134.146 -0.484628C134.601 -0.528166 135.167 -0.537952 135.796 -0.51313C136.425 -0.488307 137.097 -0.429625 137.755 -0.342175C138.575 -0.581096 140.344 -0.308149 141.652 -0.283618C142.054 -0.162115 141.592 -0.183475 141.572 -0.150094C141.553 -0.116712 141.572 -0.150101 141.415 -0.169652C140.11 0.00241801 138.322 0.0399381 136.302 -0.0623647C135.928 -0.0619393 135.572 -0.0541005 135.237 -0.0389229C134.73 -0.0174401 134.158 -0.0195851 133.547 -0.045264C132.879 -0.0641227 132.265 -0.0551663 131.735 -0.0188261C131.43 -0.0194176 131.172 -0.0012125 130.986 0.0341128C130.799 0.069439 130.689 0.120742 130.666 0.18325C130.87 0.231441 131.096 0.275535 131.335 0.313783C132.582 0.4648 133.827 0.52731 134.823 0.489014C136.556 0.423029 138.619 0.487419 140.462 0.464894C141.708 0.455768 143.034 0.481761 144.415 0.54239C144.415 0.54239 144.379 0.603589 144.376 0.609152C144.539 0.63565 144.711 0.656909 144.881 0.671714C144.881 0.671714 144.881 0.671715 144.897 0.643897C144.822 0.617182 144.719 0.592052 144.601 0.571414L144.191 0.520582C144.47 0.507353 144.73 0.467968 145.021 0.492032C145.634 0.536738 146.219 0.555612 146.742 0.547532C147.265 0.539451 147.715 0.504578 148.065 0.445009C148.685 0.36866 149.456 0.333942 150.328 0.343092C150.996 0.334756 151.641 0.316843 152.258 0.289437C152.258 0.289437 152.297 0.222681 152.589 0.187199C152.313 0.143437 152.024 0.107701 151.737 0.0816318C150.488 0.0165025 149.235 -0.0430629 148.008 -0.0875904C147.556 -0.0924013 147.131 -0.0849403 146.741 -0.0653539C145.661 -0.0424346 144.448 -0.0749645 143.172 -0.161045C143.172 -0.161045 142.919 -0.192323 142.793 -0.207963C143.151 -0.354717 144.385 -0.207799 144.885 -0.307184C145.189 -0.305376 145.724 -0.292878 145.705 -0.319043C145.664 -0.353956 145.659 -0.386393 145.691 -0.414021C145.723 -0.44165 145.791 -0.463791 145.891 -0.478851C145.99 -0.493913 146.119 -0.501526 146.267 -0.50114C146.415 -0.500752 146.579 -0.492372 146.747 -0.476612C148.153 -0.391348 149.476 -0.367636 150.637 -0.406931C151.077 -0.406174 151.571 -0.380902 152.007 -0.37458C152.275 -0.366964 152.519 -0.371199 152.726 -0.387051C153.782 -0.503793 155.202 -0.512319 156.773 -0.411348C157.533 -0.375045 158.243 -0.370192 158.866 -0.397033C159.309 -0.401836 159.497 -0.318837 159.813 -0.279736L161.153 -0.197312L159.432 -0.0940318C159.8 0.142653 160.092 0.220695 160.694 0.23544C161.571 0.257707 162.425 0.267767 163.251 0.265557C163.862 0.263611 164.367 0.212641 165.194 0.303174C165.341 0.317941 165.481 0.322719 165.593 0.316712C166.562 0.236336 167.729 0.21789 169.014 0.262633C169.679 0.112124 170.812 0.258458 171.861 0.376362C172.199 0.262989 171.586 0.210948 171.22 0.141772C172.097 0.148854 172.981 0.14481 173.886 0.161364C174.158 0.155339 174.469 0.165647 174.795 0.191481C175.121 0.217313 175.452 0.257963 175.763 0.310252C175.915 0.344039 176.097 0.369467 176.273 0.381258C176.449 0.393047 176.605 0.390297 176.708 0.373576C177.178 0.324262 177.931 0.369683 178.319 0.286383C178.457 0.267226 178.654 0.264552 178.875 0.278829C179.097 0.293104 179.328 0.323406 179.527 0.364303C179.309 0.377063 179.115 0.397156 178.949 0.42414C178.355 0.511795 178.573 0.658258 179.328 0.871189C180.487 0.859479 181.671 0.862804 182.745 0.822673C183.344 0.786649 184.078 0.79791 184.864 0.855195C185.65 0.912477 186.458 1.01351 187.196 1.14693C187.463 1.19824 187.767 1.23377 188.048 1.24648C188.33 1.25919 188.567 1.24814 188.714 1.21552C188.805 1.1778 188.833 1.13005 188.796 1.07643L188.039 0.982595C188.039 0.982595 188.068 0.932523 188.075 0.921396L189.164 0.912982C189.74 0.91269 190.342 0.92744 190.886 0.923238C191.687 0.895294 192.6 0.910869 193.57 0.968998C194.465 1.0286 195.345 1.07366 196.201 1.10376C197.03 1.13475 197.631 1.03596 198.42 1.02019C199.016 1.0083 199.672 1.021 200.363 1.05782C201.556 1.1231 202.651 1.12323 203.548 1.05817C204.594 1.40869 205.103 1.46568 206.074 1.37097L206.53 1.34391L206.655 1.41909L207.004 1.40256C207.656 1.38783 208.309 1.37311 208.99 1.36786C209.937 1.40039 210.959 1.48791 211.957 1.62187C212.146 1.64533 212.404 1.72504 212.571 1.78744C212.737 1.84985 213.1 2.03811 213.366 2.16066C213.076 2.25013 212.754 2.33568 212.523 2.43853C212.5 2.4561 212.503 2.47705 212.53 2.4997C212.558 2.52235 212.61 2.54607 212.682 2.56894C212.754 2.59181 212.844 2.6132 212.945 2.6314C213.047 2.6496 213.156 2.66409 213.265 2.67372C213.477 2.69446 213.687 2.70828 213.885 2.71463C214.86 2.72557 215.794 2.71744 216.678 2.69031C217.001 2.65205 217.442 2.64841 217.933 2.67999C218.424 2.71157 218.936 2.77655 219.387 2.86462C220.544 2.81175 221.887 2.82737 223.325 2.9104C224.846 2.8599 226.683 2.96203 228.104 2.85138C228.071 2.90702 228.218 3.0028 228.422 3.05799C228.746 3.14182 229.112 3.21951 229.506 3.28777L232.511 3.42104C232.623 3.48957 232.764 3.55894 232.93 3.62825C233.044 3.683 233.243 3.73658 233.485 3.77762C233.726 3.81866 233.991 3.84395 234.223 3.84812C234.821 3.86843 235.323 3.82302 236.035 3.9352C234.938 4.04125 233.457 4.02716 231.857 3.89545C230.354 3.79527 228.908 3.74521 227.573 3.74711C227.133 3.74635 226.554 3.7522 226.416 3.8128C226.111 3.98406 225.314 3.95699 224.384 3.9254C223.653 3.89082 222.986 3.8947 222.437 3.93672C221.887 3.97875 221.472 4.05772 221.225 4.16714C221.162 4.27284 221.312 4.36307 221.953 4.42458L224.62 4.67123C225.013 4.63952 225.386 4.60198 225.737 4.55877C226.329 4.50139 227.059 4.48563 227.872 4.51274C228.685 4.53985 229.557 4.60909 230.422 4.71508C230.864 4.76982 231.306 4.82456 231.627 4.79855C231.908 4.76867 232.167 4.7329 232.402 4.6915C232.449 4.66375 232.468 4.63181 232.458 4.59692C232.628 4.61314 232.798 4.63424 232.963 4.65948C234.28 4.95392 235.299 4.94882 236.226 4.87245C236.476 4.84975 236.667 4.81366 236.921 4.7854C237.175 4.75713 237.264 4.72045 237.495 4.73112C239.336 4.82769 239.866 4.50516 241.417 4.51811C241.493 4.50552 241.54 4.48668 241.553 4.46334C241.567 4.44001 241.548 4.41293 241.496 4.38459C241.387 4.359 241.26 4.337 241.127 4.3206C240.995 4.3042 240.861 4.29394 240.738 4.29075C240.025 4.24936 239.394 4.26205 238.955 4.32665C238.644 4.35305 238.315 4.37409 237.969 4.38964L236.416 3.92257C237.92 3.96539 239.343 3.96511 240.652 3.92174C240.938 3.89738 241.421 3.93934 241.823 3.94732L244.779 3.99097C245.387 3.99459 245.905 3.92137 246.753 4.09205C246.753 4.09205 247.312 4.11958 247.462 4.09627C247.611 4.07297 248.273 3.92802 248.668 3.8336C249.126 3.86052 249.761 3.93316 250.047 3.90881C250.545 3.84899 250.977 3.7723 251.334 3.68012L253.12 3.81171C253.118 3.92861 253.053 4.03858 252.926 4.13996C252.786 4.23773 252.791 4.35509 252.939 4.48244C253.088 4.6098 253.375 4.74353 253.779 4.87272L255.542 5.55692C255.83 5.60274 256.137 5.63358 256.421 5.64526C256.705 5.65694 256.953 5.64889 257.13 5.6222C257.889 5.54297 258.739 5.48103 259.497 5.4018C260.476 5.52301 260.225 5.71879 260.936 5.89052L263.241 6.17595C263.592 6.44045 263.95 6.69382 262.881 6.78237C262.669 6.79786 262.812 6.89921 262.618 6.94086C263.449 7.13936 264.363 7.19878 265.205 7.32104C265.538 7.40897 265.815 7.50204 266.025 7.59576C266.256 7.73689 266.723 7.88104 267.326 7.99711C267.93 8.11317 268.621 8.19182 269.25 8.21608C270.305 8.29039 271.386 8.40199 272.443 8.54589C272.804 8.59592 273.175 8.63239 273.531 8.6528C273.888 8.67322 274.22 8.67713 274.508 8.66426C275.531 8.6416 276.397 8.56369 277.049 8.43559C277.694 8.32688 278.564 8.27448 279.579 8.28315C281.316 8.4982 281.666 8.82225 282.717 9.10767L280.902 9.13967C280.836 9.25094 280.956 9.39124 280.212 9.38867C279.468 9.3861 279.845 9.49257 280.087 9.60008C280.172 9.65417 280.338 9.7098 280.556 9.75757C280.775 9.80533 281.033 9.84229 281.287 9.86219L282.832 9.9998C283.38 10.0522 283.91 10.0745 284.364 10.0644C284.819 10.0543 285.18 10.0122 285.407 9.94256C285.669 9.87645 286.03 9.83174 286.468 9.81115C287.026 9.75723 287.486 9.67703 287.829 9.57359L290.01 9.7243C290.103 9.62035 290.402 9.54747 290.858 9.51797C291.314 9.48846 291.898 9.50415 292.512 9.56239L293.982 9.65489C295.617 9.75581 295.975 9.72259 296.454 9.42952L294.494 8.90606C294.779 8.76818 295.054 8.64699 295.329 8.52579C294.84 8.35333 294.189 8.19022 293.44 8.05301C292.742 7.90558 292.023 7.76279 291.288 7.62519C290.49 7.48458 289.648 7.36232 288.657 7.20381C288.484 7.15254 288.233 7.0617 287.912 6.97419C287.591 6.88914 287.256 6.80577 286.908 6.72441C286.974 6.61314 287.033 6.513 286.907 6.38383C287.516 6.42504 288.147 6.49713 288.74 6.59358C289.334 6.69004 289.872 6.80783 290.307 6.93634C290.38 6.95912 290.469 6.98053 290.569 6.99911C290.669 7.01768 290.778 7.033 290.887 7.04401C291.958 7.12297 292.47 7.28792 292.994 7.49017C293.347 7.59356 293.802 7.68538 294.296 7.75288C295.243 7.87019 296.17 8.02087 297.076 8.15096C297.353 8.1943 297.641 8.22998 297.928 8.25652C298.875 8.34091 299.828 8.45891 300.738 8.60452C301.035 8.64153 301.32 8.6905 301.57 8.74735C301.819 8.8042 302.025 8.86726 302.171 8.93129C301.946 9.00143 301.824 9.08997 301.813 9.19157C301.774 9.25833 302.439 9.39443 302.753 9.49308C303.067 9.59172 302.451 9.54524 302.242 9.55517C301.383 9.57425 301.224 9.61424 301.738 9.83319C301.91 9.90203 302.024 9.97092 302.073 10.0356C302.122 10.1002 302.105 10.1592 302.024 10.209C301.902 10.4148 301.531 10.5838 301.276 10.7852C301.671 10.9178 302.333 11.0594 302.405 11.2236C302.44 11.2601 302.513 11.2987 302.619 11.3366C302.726 11.3746 302.863 11.411 303.02 11.4432C303.436 11.5127 303.814 11.5958 304.125 11.6861C304.436 11.7764 304.671 11.8714 304.813 11.9638C304.859 12.002 304.972 12.0426 305.127 12.0773C305.282 12.1121 305.47 12.1385 305.651 12.1512C305.868 12.1668 306.062 12.1647 306.193 12.1454C306.324 12.1261 306.383 12.091 306.356 12.0474C306.361 11.9655 306.333 11.8801 306.27 11.792C306.307 11.7308 306.343 11.6696 306.2 11.5682C306.847 11.6052 307.526 11.6793 308.164 11.7825C308.802 11.8857 309.374 12.0141 309.818 12.1536C310.308 12.298 310.76 12.4496 311.304 12.6185C311.192 12.8076 311.192 12.8076 312.349 13.1421L318.488 13.3051L319.746 13.5267C320.919 13.7197 321.198 13.7065 321.935 13.6067L322.431 13.5129C323.473 13.6419 324.673 13.7905 325.324 13.5487C325.536 13.7063 325.674 13.7592 325.626 13.7831C325.315 14.0157 324.775 14.213 324.026 14.3673C323.835 14.4034 323.701 14.4584 323.479 14.4906C322.762 14.6722 322.595 14.9528 323.014 15.275C323.221 15.4176 323.523 15.5636 323.909 15.7084C323.344 15.9093 322.596 16.0757 321.684 16.2032C320.91 16.3019 320.273 16.434 319.791 16.5958C319.358 16.7589 318.709 16.8816 317.883 16.9567C317.463 16.9886 317.157 17.0516 316.995 17.1394C316.947 17.377 317.058 17.6314 317.325 17.8969C317.376 17.9777 317.519 18.065 317.744 18.1519C317.969 18.2388 318.269 18.323 318.621 18.3978C318.621 18.3978 318.791 18.4546 318.873 18.4886C318.94 18.7764 318.686 19.03 318.127 19.2323C318.035 19.2898 317.848 19.3312 317.584 19.3523C317.321 19.3734 316.992 19.3732 316.633 19.3519C315.874 19.3176 315.164 19.3133 314.43 19.2941C313.639 19.2668 312.942 19.2883 312.413 19.3562C311.884 19.4241 311.542 19.536 311.423 19.68C311.415 19.7208 311.392 19.7599 311.354 19.7969C311.331 19.8159 311.319 19.8364 311.317 19.8581L313.003 20.3296L311.096 20.5174C310.984 20.7066 311.899 20.82 312.358 20.9604L312.075 21.0388C311.71 21.0831 311.218 20.9983 310.772 20.9491L310.33 20.8944L310.278 20.9834C310.002 21.1046 308.999 20.9683 308.607 21.0572C308.216 21.1461 308.495 21.2464 309.082 21.3429C309.49 21.4147 309.928 21.4719 310.363 21.5103C310.798 21.5486 311.219 21.5672 311.594 21.5644C311.818 21.5549 312.004 21.5332 312.14 21.5007C312.932 21.3621 313.806 21.2429 314.757 21.1441C315.486 21.0553 316.399 21.0175 317.432 21.0334C317.735 21.0267 318.101 21.0478 318.464 21.0928C318.828 21.1379 319.167 21.204 319.421 21.2798L319.956 21.2922C319.956 21.2922 320.248 21.3703 320.207 21.3831C320.003 21.6143 320.24 21.897 320.881 22.1892L320.324 22.2157C319.526 22.1886 320.032 22.3647 319.913 22.4514C319.346 22.435 318.61 22.3618 318.342 22.4719L317.94 22.4639L318.098 22.4834L318.289 22.4473L319.038 22.6119C318.683 22.6395 318.426 22.6734 318.112 22.6882C317.939 22.7012 317.801 22.724 317.706 22.7555C317.612 22.7869 317.563 22.8262 317.563 22.8711C317.564 22.9401 317.47 22.9982 317.291 23.0398C317.113 23.0814 316.854 23.1052 316.541 23.1088C316.167 23.1103 315.953 23.1853 315.734 23.2119L316.686 23.6642C316.686 23.6642 316.213 23.6056 316.47 23.6853L316.503 23.6297L317.08 23.7429C317.496 23.8421 317.786 23.8662 318.032 23.7951C318.277 23.724 318.221 23.8186 318.339 23.7913C318.296 23.8637 318.029 23.9142 317.8 23.9575C317.535 23.9915 317.237 24.0165 316.909 24.0322C317.5 24.3502 317.528 24.3597 316.665 24.4439C315.802 24.5281 316.099 24.6546 315.377 24.6726C314.655 24.6906 315.476 24.9058 315.959 24.9478C316.318 24.9754 316.683 25.0183 317.031 25.0737C317.378 25.1291 317.699 25.1956 317.972 25.2687L317.827 25.5135C317.614 25.4932 317.401 25.4669 317.195 25.4353C316.496 25.3008 315.859 25.1742 315.237 25.2524L315.533 25.4384L313.36 25.3306C313.417 25.47 313.748 25.6288 314.284 25.7734C314.203 25.8529 314.154 25.9365 314.136 26.0238C314.099 26.085 313.885 26.0465 313.746 26.0531C313.248 26.0633 312.84 26.1048 312.556 26.1739C312.273 26.2429 312.124 26.3374 312.121 26.4491C312.065 26.5437 312.83 26.74 313.308 26.7335C314.503 26.7524 315.794 26.8251 317.112 26.9478C317.916 26.9638 318.03 26.7151 319.352 26.8849C319.379 26.9997 319.209 27.0927 318.87 27.1498C318.53 27.2068 318.039 27.2249 317.47 27.2012C317.794 27.4562 319.584 27.5227 319.664 27.7893C319.218 27.7705 318.741 27.7262 318.28 27.6608C317.82 27.5954 317.392 27.5111 317.038 27.4164C316.962 27.393 316.866 27.3715 316.759 27.3538C316.653 27.3361 316.539 27.3228 316.429 27.3151C316.319 27.3073 316.215 27.3055 316.128 27.3097C316.041 27.3139 315.974 27.324 315.932 27.3391C316.179 27.4355 316.452 27.5469 316.763 27.6511C317.074 27.7553 317.149 27.8004 317.374 27.8222C319.047 28.0295 319.842 28.4027 321.29 28.6477C321.669 28.6946 321.716 28.8437 321.387 28.8269C321.074 28.81 320.791 28.8122 320.569 28.8333C320.347 28.8543 320.195 28.8933 320.13 28.946C319.887 29.0074 319.585 29.0563 319.231 29.0914C320.715 29.4744 322.485 29.8128 324.375 30.0748C324.733 30.1266 325.106 30.1582 325.44 30.1649C326.494 30.1653 327.614 30.1957 328.775 30.2555C329.187 30.2718 329.567 30.2703 329.896 30.251C330.973 30.2053 331.829 30.3053 332.611 30.5873L333.905 31.0342C333.862 31.1065 333.645 31.1871 333.477 31.2978L334.488 31.5364L342.201 30.9868L343.75 31.519L345.97 31.4894C346.14 31.5048 346.311 31.5259 346.475 31.5519C346.924 31.7091 347.275 31.8601 347.762 32.01C348.25 32.1599 349.12 32.1781 349.727 32.3548C350.334 32.5315 350.942 32.5351 351.693 32.6401C351.763 32.7768 351.69 32.9 351.478 33.0017C351.409 33.1186 351.027 33.1907 350.962 33.302C350.969 33.4145 350.827 33.5099 350.549 33.5798C350.271 33.6496 349.865 33.6916 349.369 33.7019C347.979 33.9414 346.304 34.1119 344.392 34.2083C344.225 34.2153 344.085 34.2315 343.983 34.2559C343.882 34.2802 343.819 34.3122 343.8 34.3499C343.803 34.4591 343.675 34.5534 343.427 34.626C343.179 34.6986 342.816 34.7476 342.365 34.7694C342.245 34.7738 342.155 34.7875 342.105 34.8089C341.934 34.8226 341.809 34.8489 341.743 34.8852C341.677 34.9215 341.672 34.9667 341.728 35.0162C341.784 35.0657 341.899 35.118 342.062 35.168C342.225 35.218 342.431 35.264 342.66 35.3016C342.992 35.3621 343.331 35.4201 343.676 35.4752C343.656 35.5085 343.314 35.5139 343.364 35.544C343.499 35.64 343.53 35.7299 343.455 35.8067C343.38 35.8834 343.201 35.9449 342.932 35.9862L344.776 36.764C345.894 36.8717 346.992 37.0544 347.86 37.2774C347.861 37.3139 347.811 37.3445 347.715 37.3662C347.619 37.3878 347.48 37.3997 347.313 37.4007C346.863 37.4166 346.437 37.4476 345.953 37.4651C345.656 37.4783 345.41 37.5072 345.227 37.5502C345.045 37.5932 344.93 37.6494 344.889 37.7156L345.972 38.005C345.625 38.0755 345.368 38.1093 345.139 38.1526C345.268 38.2435 345.492 38.3376 345.791 38.4275C346.09 38.5174 346.458 38.6007 346.865 38.671C346.974 38.6855 347.085 38.696 347.192 38.7021C347.299 38.7082 347.4 38.7096 347.488 38.7063C348.326 38.6071 349.306 38.7823 350.259 38.948C351.211 39.1137 351.728 39.2136 352.431 39.3424L353.776 39.3598C354.117 39.4208 354.42 39.4925 354.663 39.5693C354.906 39.646 355.081 39.7256 355.175 39.8017C355.102 39.9241 354.464 39.857 354.084 39.8697C353.182 39.9458 351.996 39.9296 350.722 39.8236C350.407 39.7845 350.083 39.8161 349.776 39.8198C349.113 39.835 348.476 39.8598 347.868 39.8941C347.468 39.9259 347.093 39.9654 346.748 40.0121C346.655 40.1679 348.109 40.2882 347.284 40.3652C347.568 40.4004 347.674 40.4494 347.821 40.4316C348.756 40.5328 349.679 40.5828 350.48 40.5759C352.018 40.5544 353.764 40.6254 355.576 40.783C357.531 40.9463 359.407 41.0149 361.049 40.9831C361.674 40.9812 362.373 41.0147 363.092 41.0809C363.941 41.1726 364.784 41.2302 365.567 41.2501C365.826 41.2508 366.115 41.2664 366.41 41.2956C366.704 41.3249 366.997 41.3669 367.263 41.4183C367.24 41.4573 366.986 41.4856 367.043 41.5045C367.853 41.7959 368.181 42.0994 369.428 42.3971C370.28 42.5027 371.259 42.6239 371.816 42.4839C372.374 42.3439 372.174 42.2236 371.065 41.8653C371.306 41.8601 371.596 41.8769 371.884 41.9126C372.173 41.9483 372.441 42.0008 372.643 42.0608L373.603 42.3289L374.467 42.5853C374.392 42.7133 374.332 42.8134 374.27 42.9191C374.171 43.0314 374.279 43.1681 374.58 43.3099C374.762 43.3874 374.92 43.4649 375.053 43.5417C375.593 43.8488 375.75 44.1391 375.505 44.38C375.035 44.7263 374.382 45.045 373.551 45.3324C372.674 45.6119 372.194 45.9645 371.471 46.2691C371.102 46.4078 370.654 46.5322 370.132 46.6408C369.142 46.8824 368.057 47.1123 367.063 47.3595C366.07 47.6067 364.948 47.7843 363.844 47.988C362.201 48.2298 360.425 48.4386 358.526 48.6133C357.351 48.7664 356.144 48.9155 355.057 49.0914C353.773 49.2897 352.265 49.4321 350.57 49.5151C349.073 49.6144 347.735 49.7613 346.583 49.9529C346.462 49.9736 346.367 50 346.299 50.0312C346.092 50.2267 345.51 50.3644 344.644 50.4234C344.696 50.4806 344.764 50.5388 344.845 50.5976C344.966 50.6678 344.991 50.7335 344.917 50.7862C344.844 50.8388 344.675 50.876 344.433 50.893C343.74 50.9414 343.164 51.0236 342.73 51.1359C342.571 51.1641 342.473 51.2052 342.443 51.2556C342.413 51.3059 342.453 51.3642 342.559 51.4252C342.653 51.4881 342.66 51.5459 342.579 51.5912C342.498 51.6365 342.332 51.6672 342.103 51.6794C341.517 51.7388 340.888 51.7867 340.222 51.8226C338.806 51.9019 337.158 51.9009 335.378 51.8198C335.189 51.7964 334.998 51.8325 334.777 51.8051C333.519 51.7143 332.35 51.7002 331.412 51.7646C330.313 51.7897 329.164 51.7847 328.005 51.7964C326.33 51.7886 324.785 51.8363 323.413 51.9384C321.845 51.8398 320.964 52.0113 319.641 52.0146C318.419 52.0322 317.26 52.0745 316.177 52.141C314.43 52.2293 312.69 52.3064 310.969 52.4097C309.353 52.4589 307.866 52.553 306.532 52.6903C306.021 52.7524 305.096 52.6557 304.748 52.7858C304.399 52.9159 303.697 52.9005 303.129 52.9436L301.338 53.0502C301.03 53.0756 300.691 53.0917 300.327 53.0982C298.661 53.1069 297.507 53.2805 295.961 53.316L295.804 53.2964C293.059 53.5546 289.917 53.6963 286.472 53.7173C284.46 53.7965 282.259 53.7927 280.124 53.8508C279.615 53.9668 278.412 53.8238 277.773 53.9298C277.134 54.0358 276.091 53.9663 275.267 53.9838C274.443 54.0012 273.638 54.0448 272.758 54.0433C271.994 54.0438 271.348 54.0911 270.88 54.181C269.813 54.3295 268.511 54.4169 267.034 54.4391C265.079 54.4777 263.231 54.5653 261.243 54.5461C261.272 54.6544 261.15 54.7465 260.89 54.8129C260.63 54.8794 260.242 54.9179 259.765 54.9244C257.64 54.9657 255.712 55.0733 253.558 55.1052L252.982 55.1055L246.541 55.1676C244.805 55.1796 243.133 55.1994 241.363 55.2131C240.7 55.131 240.684 55.2723 240.225 55.2454C240.097 55.1758 239.946 55.1451 239.72 55.1828L239.671 55.2663L232.319 55.377C229.441 55.458 226.413 55.4822 223.262 55.4496C222.515 55.4578 221.817 55.4855 221.18 55.5322C220.59 55.5492 219.974 55.5567 219.337 55.5547C218.475 55.5337 217.633 55.5231 216.814 55.5229C214.66 55.5548 212.4 55.5376 210.042 55.5142C207.683 55.4909 205.897 55.5324 203.798 55.5292C202.376 55.5263 200.961 55.5123 199.49 55.4794C198.787 55.464 197.921 55.3807 197.194 55.3503C196.466 55.3199 196.229 55.3204 196.133 55.3682C195.816 55.5021 195.02 55.4155 194.384 55.4024C193.144 55.3802 192.967 55.3344 192.63 54.9881L194.153 54.8781C194.526 54.8426 194.995 54.8363 195.515 54.86C196.035 54.8836 196.589 54.9363 197.123 55.013C197.333 55.0459 197.552 55.0719 197.769 55.0895C197.985 55.107 198.194 55.1159 198.384 55.1154C199.92 55.0967 201.434 55.0573 202.91 55.0251L203.126 55.0041L203.14 54.6952C202.944 54.6649 202.742 54.6398 202.54 54.621L195.136 54.4205C193.436 54.3713 191.672 54.2603 190.005 54.2151C188.337 54.1698 187.439 54.1421 186.145 54.0953C185.599 54.0686 185.042 54.0336 184.479 53.9905C184.511 53.9607 184.53 53.9291 184.535 53.8959C184.564 53.8458 184.604 53.7791 184.365 53.7255C184.103 53.6499 183.754 53.5854 183.387 53.5448C183.042 53.5179 182.708 53.5027 182.397 53.4998C180.896 53.4739 179.18 53.3108 177.618 53.0452L177.072 53.2224C174.725 53.1229 172.343 53.0249 169.891 52.9303C169.401 52.9045 168.885 52.855 168.385 52.7855C167.848 52.719 167.354 52.5802 166.789 52.5043C166.231 52.4496 165.676 52.407 165.136 52.3772C165.282 52.3316 165.475 52.2951 165.709 52.2689C165.938 52.2598 166.106 52.2313 166.186 52.1876C166.267 52.1439 166.257 52.0873 166.158 52.0259C165.983 51.9207 165.906 51.8216 166.286 51.809C166.638 51.785 166.889 51.733 167.011 51.6592C167.133 51.5854 167.12 51.4928 166.974 51.3924C166.91 51.3338 166.864 51.2763 166.838 51.2204L166.68 51.2009C166.16 50.9931 165.12 50.918 164.374 50.7479C164.021 50.6986 163.657 50.6703 163.337 50.6673C162.511 50.6308 161.708 50.6148 160.854 50.5688C160.446 50.5476 160.019 50.509 159.599 50.4552C159 50.381 158.936 50.3731 158.588 50.1031C159.129 50.1078 159.558 50.0674 159.802 49.9889C160.046 49.9103 160.091 49.7983 159.928 49.6718C159.482 49.3956 159.011 49.1043 156.992 48.9081C157.65 48.8984 158.284 48.8792 158.89 48.8505C159.066 48.8443 159.198 48.824 159.268 48.7923C159.338 48.7606 159.343 48.7191 159.282 48.6732C159.221 48.6273 159.096 48.5792 158.926 48.5355C158.755 48.4917 158.546 48.4544 158.327 48.4284C157.261 48.2721 156.15 48.1676 155.117 48.1264C154.247 48.1082 153.461 48.1184 152.445 48.118L151.245 47.9694C151.265 47.936 151.089 47.8903 151.134 47.8719C151.438 47.7007 151.775 47.5333 152.121 47.3493C151.568 47.2499 151.089 47.1299 150.739 47.0031C150.388 46.8763 150.181 46.7477 150.14 46.6321C150.11 46.5973 150.118 46.5655 150.163 46.5391C150.208 46.5127 150.289 46.4922 150.4 46.4792C150.716 46.4569 150.96 46.4142 151.113 46.3544C151.266 46.2947 151.324 46.2195 151.282 46.1346L150.349 45.822C147.54 45.5989 144.782 45.4395 142.125 45.3468L139.727 45.2767C139.437 45.1931 139.527 45.1564 139.799 45.1543C140.072 45.1522 140.837 45.1754 141.372 45.1879C141.834 45.2043 142.244 45.1935 142.563 45.1566C142.882 45.1197 143.098 45.0579 143.191 44.9772L142.386 44.6207C142.426 44.5539 142.482 44.4594 142.918 44.4657C143.217 44.458 143.437 44.4243 143.543 44.3703C143.648 44.3162 143.634 44.2449 143.502 44.1677C143.482 44.1118 143.512 44.061 143.591 44.0175C144.237 44.0139 144.879 44.0158 145.465 43.9988C145.739 43.9932 145.969 43.9725 146.141 43.9382C146.314 43.9039 146.424 43.8568 146.464 43.8001C146.486 43.7447 146.434 43.6816 146.314 43.6159C146.194 43.5502 146.009 43.4837 145.774 43.4219C144.855 43.3453 144.015 43.3443 143.437 43.4191C143.231 43.4777 142.9 43.5098 142.488 43.511C142.076 43.5122 141.602 43.4825 141.129 43.4259C140.587 43.3606 140.046 43.3319 139.603 43.3449C139.16 43.358 138.845 43.412 138.714 43.4971C138.158 43.464 137.664 43.4388 137.178 43.4024C136.604 43.3564 136.061 43.3429 135.608 43.3632C134.884 43.3776 134.104 43.3692 133.285 43.3382C130.925 43.2609 128.561 43.1891 126.276 43.1569C125.671 43.1477 125.148 43.1725 124.55 43.1522C123.952 43.1319 123.479 43.1868 122.732 43.0763C122.589 43.0591 122.446 43.0481 122.313 43.044C122.18 43.04 122.061 43.0431 121.966 43.0531C120.653 43.1405 119.113 43.1529 117.437 43.0894C115.142 43.0739 112.762 43.03 110.464 43.02C109.79 43.0286 109.153 43.0516 108.559 43.0887C108.108 43.1111 107.635 43.1263 107.143 43.1342C106.766 43.1413 106.405 43.1205 106.469 43.2419C106.533 43.3632 105.968 43.2873 105.642 43.2649C104.524 43.206 103.38 43.1264 102.225 43.0268C101.087 42.9186 99.9717 42.8556 98.9461 42.8416C98.2054 42.8335 97.4416 42.8643 96.4893 42.6986C96.5256 42.6374 96.5618 42.5762 96.7692 42.5123C95.9926 42.3365 95.1065 42.1852 94.1842 42.071C93.2619 41.9567 92.3299 41.8828 91.4654 41.8554L90.2732 41.5226C89.9797 41.4836 89.68 41.4551 89.3925 41.439C89.1049 41.4229 88.8354 41.4194 88.6005 41.4289C88.4189 41.4337 88.1976 41.4214 87.9772 41.3941C87.7569 41.3668 87.5522 41.3264 87.4008 41.2803C87.1744 41.2217 86.8979 41.1712 86.6059 41.135C86.3139 41.0989 86.0193 41.0787 85.7592 41.077C84.94 41.0408 84.0657 40.9573 83.2255 40.8349C83.0075 40.7631 82.8709 40.689 82.8326 40.6217C82.7942 40.5543 82.8558 40.4966 83.0097 40.4558C83.2579 40.3837 83.3973 40.2918 83.4194 40.1857C83.4414 40.0797 83.3458 39.9616 83.1382 39.8387C83.032 39.7632 82.9964 39.6918 83.0338 39.6287C83.0712 39.5656 83.1808 39.5121 83.3559 39.4715C84.0094 39.2837 83.8345 39.1784 82.7654 38.8669C82.5917 38.8149 82.3823 38.7664 82.1506 38.7243C81.9188 38.6822 81.6698 38.6476 81.4191 38.6225C80.8311 38.5717 80.2512 38.5339 79.6899 38.5098C79.3742 38.4707 79.0504 38.5023 78.6867 38.4871C76.8679 38.4112 76.6016 38.2886 76.0126 38.0245L75.5833 37.834C74.7872 37.6797 73.9164 37.5515 73.0339 37.4587C72.1513 37.3659 71.2789 37.3109 70.4794 37.2974C70.1616 37.2964 69.7963 37.2701 69.4395 37.2224C68.2781 37.0766 67.1019 36.9757 65.9889 36.9264C65.2953 36.8987 64.5477 36.8268 63.8358 36.7196C63.1239 36.6124 62.478 36.4743 61.9757 36.3219C61.5245 36.1846 60.9341 36.0614 60.2869 35.9694C59.5292 35.8755 59.459 35.7653 59.8821 35.6804C60.3053 35.5954 61.0139 35.4861 61.6429 35.3968C61.8618 35.3665 61.9974 35.3171 62.0347 35.2542C62.0719 35.1914 62.0094 35.1174 61.8539 35.0407C61.7542 34.9095 61.7368 34.7849 61.8025 34.6701C61.8375 34.6224 61.8133 34.5676 61.7315 34.5096C61.6496 34.4516 61.512 34.3916 61.3279 34.3337C61.1439 34.2758 60.9176 34.2214 60.6644 34.174C60.4112 34.1267 60.1369 34.0875 59.8601 34.0593C58.692 33.9146 57.5555 33.7738 56.3643 33.6681C55.8651 33.6183 55.3665 33.5565 54.8805 33.4843C53.8858 33.3058 52.8217 33.1578 51.7499 33.0488C51.2412 33.0001 50.7439 32.9149 50.3656 32.8117C49.1723 32.5336 48.0727 32.2412 47.0868 31.9398C46.8492 31.8463 46.5383 31.7551 46.1736 31.6719C45.8088 31.5887 45.3982 31.5153 44.9674 31.4563C44.6201 31.4133 44.3374 31.3186 44.0697 31.2556C43.8753 31.1096 43.8544 30.9746 44.0094 30.8633C44.1643 30.7519 44.4898 30.6678 44.9554 30.6188C45.3969 30.56 45.8101 30.4917 46.1918 30.4195C46.6518 30.3612 47.1987 30.3261 47.8122 30.3157C48.5388 30.2843 49.076 30.1948 49.3539 30.0587C47.365 29.8124 45.4736 29.4587 43.7302 29.5414L42.4056 29.3176C42.4583 29.2286 42.5045 29.1507 42.5474 29.0784C42.8624 28.9467 42.9608 28.7807 42.8342 28.5943C42.7298 28.5042 42.7393 28.4222 42.8615 28.3565C42.9837 28.2909 43.2143 28.2441 43.5301 28.2207C45.4007 27.9806 47.5639 27.8185 49.3181 27.5461C49.8681 27.4949 50.5119 27.4717 51.2225 27.4774C51.91 27.461 51.8812 27.338 51.0901 27.1863C50.646 27.107 50.1934 27.031 49.734 26.9586C47.7079 26.9465 46.8825 27.3101 44.5704 27.2089L43.4987 26.7298C43.2089 26.7224 42.9276 26.7194 42.6567 26.721L38.7799 26.9157C38.457 26.9255 38.2056 26.9588 38.0543 27.0118C37.9031 27.0649 37.858 27.1355 37.9242 27.2158C37.9505 27.3141 37.8971 27.4041 37.7659 27.4829C37.6814 27.538 37.7355 27.6113 37.9163 27.6866C38.324 27.8566 37.801 27.8814 37.4707 27.9241C37.3862 27.9282 37.2889 27.9278 37.1842 27.9227C37.0796 27.9177 36.9698 27.9082 36.8611 27.8947C36.7525 27.8813 36.6472 27.8642 36.5513 27.8444C36.4554 27.8246 36.3709 27.8025 36.3026 27.7794C35.7206 27.6177 35.2117 27.4472 34.6396 27.2689C35.0458 27.0982 34.5679 26.8181 35.2016 26.6636C35.2725 26.6328 35.3009 26.5952 35.285 26.5532C35.2691 26.5112 35.2093 26.4656 35.1092 26.4193C34.8511 26.2997 34.7283 26.1832 34.7529 26.0814C34.7775 25.9796 34.9488 25.8961 35.2495 25.8395L35.2858 25.7783C34.4927 25.5726 34.7029 25.3896 34.3914 25.1718L33.6285 25.0296C31.7305 24.687 31.7272 24.6926 30.0931 24.7052C29.7637 24.5748 30.1822 24.555 30.496 24.5401L33.1243 24.3938C34.8427 24.2961 36.611 24.2285 38.5306 24.1915C40.4502 24.1545 42.5903 24.0314 44.5744 23.9427C44.6748 23.9359 44.7515 23.9223 44.7982 23.9031C44.8449 23.884 44.8603 23.8598 44.843 23.8327C44.7641 23.8033 44.6609 23.775 44.5409 23.7498C44.4209 23.7246 44.2873 23.7032 44.1498 23.6871C43.5184 23.6089 42.8706 23.5585 42.1977 23.4931L40.9433 23.3795L40.5575 23.2302C40.3063 23.1394 40.1347 23.0286 39.8006 22.9633C39.5253 22.9146 39.2265 22.8777 38.9352 22.8563C38.6438 22.8349 38.3708 22.8299 38.1444 22.8418C37.5168 22.8716 36.949 22.9147 36.3497 22.9539C35.7504 22.9932 35.4201 23.0359 34.9003 23.0551C33.8444 23.0639 32.8239 23.087 31.8433 23.1244C31.0174 23.2129 30.2534 23.3177 29.5563 23.4383C29.1214 23.486 28.7147 23.5431 27.9721 23.481C27.6198 23.4247 27.3159 23.3507 27.1143 23.2721C26.9128 23.1936 26.8265 23.1156 26.8709 23.052C26.9107 23.0021 27.0235 22.9626 27.1986 22.9373C27.3737 22.912 27.6053 22.9016 27.8716 22.9072C28.617 22.898 29.3063 22.8671 29.9256 22.8152C30.7876 22.7211 31.8368 22.6805 33.0122 22.6958C33.4109 22.7094 33.6781 22.6589 34.0267 22.6423C34.3754 22.6258 34.6708 22.5848 35.0595 22.615C36.2672 22.6929 36.8463 22.5735 37.57 22.4959C37.815 22.4615 37.9667 22.4059 38.0086 22.3353C38.0505 22.2646 37.9809 22.1816 37.8074 22.0954C37.4734 21.9236 37.0647 21.7509 36.5879 21.58C36.3425 21.496 36.0281 21.4162 35.6694 21.3469C35.3106 21.2776 34.9173 21.2207 34.5202 21.1806C34.2826 21.0755 34.1558 20.972 34.1514 20.8797C34.1469 20.7874 34.2649 20.7091 34.4947 20.6519C35.0804 20.5214 35.5996 20.3886 36.9119 20.4616C37.5288 20.4895 38.1095 20.4948 38.6307 20.4774C39.7868 20.4536 41.1204 20.5057 42.5058 20.6289C42.8642 20.6604 43.2165 20.682 43.5523 20.6928C45.9474 20.7685 48.2293 20.8063 50.5178 20.8329C51.7302 20.8457 52.9525 20.8418 54.2181 20.8791C57.1861 20.9601 59.8879 20.9185 62.7527 20.9448C64.253 20.9584 65.596 20.9039 66.7111 20.7841C66.9283 20.744 67.1148 20.6972 67.2684 20.6442C66.5295 20.5051 65.7178 20.3949 64.9112 20.3243C64.1045 20.2537 63.3299 20.2249 62.6616 20.2408C62.2942 20.2797 61.8193 20.2869 61.2899 20.2614C60.7605 20.2359 60.1975 20.1788 59.6634 20.0964L61.216 20.0498C62.2456 20.028 63.3 20.0213 64.3013 19.99C65.892 19.9362 67.3663 19.8501 69.0136 19.8152C70.3435 19.7831 71.5336 19.7012 72.5465 19.572C73.2782 19.4777 74.114 19.4108 75.0367 19.3728C75.6926 19.3525 75.6926 19.3525 76.1119 19.1596C75.7792 19.0348 75.349 19.0173 74.9438 19.0149C72.5144 18.9364 70.2024 18.9226 68.055 18.9739C66.9716 18.9784 66.0104 19.0313 65.2176 19.1301C65.0235 19.1717 64.5268 19.152 64.1282 19.1385C62.8786 19.1179 61.6842 19.1239 60.5595 19.1563C59.0044 19.2104 57.2725 19.1976 55.431 19.1183C55.0819 19.0214 55.4838 19.0293 55.5036 18.9959C56.9298 18.9337 58.3279 18.862 59.7824 18.8093C60.18 18.7905 60.605 18.7812 61.0527 18.7815C62.7239 18.8142 64.1166 18.7236 65.0356 18.5223C65.0817 18.4444 65.6863 18.4536 65.9534 18.4031C66.0849 18.3593 66.1724 18.3079 66.2135 18.2501C65.8242 18.1064 65.3842 18.1056 65.0454 18.1055C64.0623 18.1215 63.1166 18.1519 62.2127 18.1966C61.3725 18.239 60.4424 18.2504 59.4477 18.2303C58.7136 18.2111 58.086 18.2408 57.3453 18.2327C56.9435 18.2156 56.5276 18.1881 56.1061 18.1509C56.5754 18.0507 57.2134 17.9891 57.9753 17.9703C58.5529 17.9105 59.2752 17.8925 59.3676 17.7367C59.0947 17.6253 58.7908 17.6234 58.5467 17.635C58.0387 17.6346 57.5479 17.6416 57.0771 17.656C56.0787 17.6877 54.9978 17.6882 53.857 17.6573C53.2563 17.6458 52.6863 17.6493 52.1565 17.6677C50.9559 17.6922 49.8053 17.7468 48.706 17.7718C46.4542 17.7975 44.4004 17.8895 42.2367 17.9381C41.7552 17.9501 41.3235 17.9922 40.6888 17.9195C40.0541 17.8469 40.0259 17.8374 39.951 17.7923C39.7734 17.7171 39.7195 17.6441 39.8007 17.5886C39.9265 17.5367 40.1718 17.5078 40.4927 17.5071C42.4269 17.4246 44.2615 17.3087 45.9849 17.1601C46.7433 17.1304 47.4079 17.0697 47.9553 16.9802C48.3895 16.9185 48.9045 16.8777 49.4843 16.859C50.3274 16.8144 51.2064 16.7817 52.1177 16.7611C52.5418 16.7501 52.9023 16.717 53.1781 16.664C53.454 16.611 53.6395 16.5391 53.7239 16.4524L52.6067 16.1648C52.4312 16.1514 52.2571 16.1398 52.0851 16.13L42.8127 16.3372L41.8944 16.343C40.8879 16.3258 40.6419 16.2834 39.6873 15.9502C41.866 15.8718 43.5788 15.6433 44.6549 15.2874C44.3963 15.2491 44.1311 15.2163 43.8656 15.1897C42.1244 15.1055 40.4785 15.0831 38.9911 15.1234C38.1077 15.1275 37.1993 15.1165 36.2875 15.1111C36.5542 14.947 37.5757 14.9959 38.2415 14.9589C39.8322 14.901 41.239 14.7815 42.4166 14.6041C42.8226 14.535 43.3306 14.4907 43.9172 14.4735C44.5044 14.4675 44.9948 14.4257 45.3458 14.3515C45.6969 14.2774 45.8979 14.1732 45.9315 14.0481C45.9868 13.9348 46.106 13.8295 46.2872 13.7338C45.9665 13.5981 45.4573 13.468 44.8551 13.3682C44.253 13.2683 43.5992 13.2055 43.0166 13.1914C41.7728 13.1355 40.4828 13.044 39.1792 12.9192C38.5299 12.8562 37.8932 12.8201 37.3105 12.8131C36.7966 12.8078 36.2125 12.7623 35.6472 12.6837C35.082 12.6051 34.5667 12.4976 34.1798 12.3776C33.6577 12.2294 33.1705 12.0794 32.6832 11.9295C32.196 11.7796 31.6306 11.5901 31.0618 11.4062C30.5604 11.3775 30.072 11.359 29.6035 11.351C29.239 11.3577 28.8136 11.3377 28.3776 11.2932C27.9416 11.2487 27.5132 11.1817 27.1429 11.1C27.3601 11.0194 27.6056 10.9483 27.8643 10.8549C27.5092 10.7316 27.2518 10.6059 27.1077 10.4853C26.9635 10.3648 26.9357 10.252 27.0259 10.1539C27.0787 10.0649 26.6927 9.91554 26.5593 9.7975C26.3876 9.69574 26.3554 9.60078 26.4668 9.52506C26.5782 9.44934 26.8281 9.3964 27.1836 9.37318C27.6246 9.33033 27.9835 9.2658 28.2456 9.18223C28.3323 9.16054 28.3765 9.13083 28.374 9.09582C28.3715 9.06081 28.3225 9.02162 28.2315 8.98183C28.1405 8.94205 28.0103 8.90293 27.8529 8.86806C27.6955 8.83319 27.5159 8.80368 27.3305 8.78224C26.7626 8.72144 26.1987 8.68203 25.671 8.66627C24.7619 8.63729 23.8916 8.61909 23.0601 8.61166C22.1405 8.60048 21.1175 8.53146 20.0949 8.41162C19.1794 8.29823 18.3585 8.19656 17.9109 7.97987C17.4632 7.76319 16.7474 7.77009 16.1971 7.61235C16.5062 7.47015 17.0558 7.37136 17.7901 7.32593C18.2707 7.30971 18.6719 7.26715 18.9679 7.20096C19.2639 7.13478 19.4482 7.04644 19.509 6.94161L17.838 6.50176C16.5036 6.29468 15.7653 6.45406 14.3234 6.37104L15.8091 6.20867C15.8389 6.19262 15.8501 6.17377 15.8421 6.15303C15.6978 5.82462 15.4683 5.7544 13.9497 5.57228L13.0973 5.46671L11.7482 5.34143C11.5322 5.27412 11.3828 5.20394 11.3149 5.13789C11.247 5.07184 11.263 5.01224 11.3613 4.96506C11.559 4.8857 11.6191 4.7843 11.5361 4.67018C11.4052 4.59459 11.3945 4.52491 11.5056 4.47322C11.6167 4.42152 11.8427 4.39109 12.1444 4.38721C12.3851 4.38119 12.403 4.29383 12.534 4.24436C12.6641 4.17618 12.8869 4.12386 13.1871 4.09096C13.4873 4.05806 13.8578 4.04535 14.2735 4.05371C15.4992 4.06054 16.6507 4.03495 17.7075 3.97738L17.5181 3.95392C18.6195 4.00446 19.6493 4.01058 20.5572 3.97201C21.4671 3.92346 22.6347 3.9546 23.6011 3.925C24.3878 3.93179 24.9868 3.86459 25.2709 3.73766C25.5461 3.61647 26.5459 3.64475 27.3116 3.66792C27.7652 3.68291 28.2035 3.68926 28.622 3.6869C29.1837 3.65947 29.886 3.68532 30.6119 3.76016C30.8296 3.78316 31.0442 3.79533 31.2348 3.7955C33.08 3.82696 34.9218 3.86397 36.742 3.88039C37.1621 3.87094 37.6548 3.89259 38.1621 3.94281C38.3754 3.96461 38.5829 3.97365 38.7568 3.96869C41.6329 3.91881 44.8784 4.04607 47.698 3.97725C48.0397 3.96099 48.4181 3.95761 48.8223 3.9672C49.7306 4.00763 50.5194 3.98161 51.0689 3.8931C51.3653 3.84602 51.7454 3.82008 52.1849 3.81692C52.6243 3.81377 53.1135 3.83348 53.6213 3.87479C54.4662 3.92949 55.2471 3.93542 55.8815 3.89196C57.1185 3.85181 58.4195 3.8353 59.774 3.84256C60.189 3.84958 60.5539 3.83398 60.8402 3.79696C61.1266 3.75993 61.3268 3.70248 61.4254 3.62905C61.0927 3.50424 60.729 3.48906 60.3836 3.50003C59.045 3.47159 57.7096 3.43758 56.396 3.42418C55.2201 3.38589 54.0919 3.37419 53.0279 3.38924C52.4996 3.40622 51.8404 3.36751 51.1941 3.28155C50.402 3.17269 49.5861 3.11861 48.9116 3.13024C48.4114 3.13313 47.8835 3.12375 47.3354 3.10225C46.9847 3.07631 46.6251 3.03178 46.2937 2.97322C46.1621 2.94779 46.019 2.9264 45.8734 2.91043C45.7278 2.89446 45.583 2.88427 45.4481 2.88049C45.3132 2.87671 45.1912 2.87942 45.09 2.88848C44.9888 2.89753 44.9106 2.91271 44.8603 2.93305C44.3529 3.10311 43.2183 3.01633 42.2467 2.99752C40.7906 2.70969 39.707 2.88005 38.3462 2.71748C38.2386 2.7067 38.1325 2.70017 38.0346 2.69831C37.9367 2.69645 37.8489 2.69928 37.7765 2.70664C35.1431 2.80449 32.0738 2.72294 29.3089 2.75673C29.0039 2.76167 28.65 2.74474 28.2873 2.70785C25.9171 2.46371 23.6381 2.39439 21.8961 2.51347C21.6841 2.52419 21.443 2.52465 21.1837 2.51482C19.9926 2.41779 18.8537 2.3791 17.8618 2.40199C16.3074 2.3946 14.8128 2.40059 13.2334 2.37816C12.1446 2.34625 11.1895 2.38034 10.4637 2.47705C10.4406 2.516 9.95715 2.47403 9.58679 2.46997C9.3738 2.37192 9.18914 2.28337 8.96955 2.19645C8.77325 2.08892 8.4792 1.9801 8.10742 1.87739C7.73564 1.77467 7.29485 1.68046 6.81474 1.60111C5.99392 1.49945 5.91183 1.35193 6.48619 1.29765C7.96662 1.11809 9.82817 1.0446 11.934 1.08257C13.6944 1.0856 15.4863 1.09255 17.2717 1.11063C18.313 1.12613 19.4108 1.16057 20.4238 1.1666C20.7657 1.17985 21.1168 1.19937 21.4736 1.22496C21.9115 1.26206 22.3366 1.28228 22.7261 1.28453C23.9767 1.25328 25.3724 1.2805 26.8467 1.36489C27.3867 1.38329 27.9051 1.38949 28.3945 1.3834C29.5521 1.3605 30.8071 1.37735 32.1262 1.43353C32.9461 1.46521 33.7411 1.48177 34.503 1.48305C34.772 1.48651 34.9911 1.4599 35.2503 1.48005C37.5313 1.6909 39.1465 1.5386 41.1995 1.61968C42.1973 1.64229 43.1505 1.64235 44.0459 1.61988C45.7932 1.62096 47.5893 1.64408 49.4269 1.68913C51.8568 1.76315 54.1085 1.73747 56.4286 1.76803C56.8867 1.77445 57.329 1.77336 57.7522 1.76475C59.8112 1.70787 62.0476 1.71993 64.4068 1.80064C64.9425 1.8123 65.4236 1.79804 65.8201 1.75877C66.2166 1.7195 66.5198 1.65605 66.7108 1.57241C66.7916 1.515 66.7393 1.44044 66.5638 1.3631C66.2726 1.26433 65.9438 1.16756 65.5828 1.07438L52.4502 0.761704C51.8987 0.745377 51.3608 0.736586 50.8393 0.735372C49.3055 0.732654 47.7246 0.70833 46.1043 0.66252C44.5032 0.61949 42.9737 0.627128 41.4226 0.614173C40.9657 0.609833 40.4967 0.599593 40.0176 0.583483C36.7788 0.45598 33.6207 0.378104 30.5655 0.350411C29.2801 0.346481 27.8915 0.287965 26.5811 0.268999C25.2707 0.250031 23.4788 0.243088 21.9244 0.235695L17.1117 0.23683C16.1651 0.233057 15.2435 0.244317 14.3251 0.250017C13.2107 -0.156747 12.8267 -0.252088 11.3396 -0.430296C10.8308 -0.496033 10.3133 -0.535262 9.8478 -0.543391C8.37158 -0.511236 6.51932 -0.64509 5.11943 -0.627369C4.27472 -0.63611 3.55794 -0.590923 3.04248 -0.496432C2.59502 -0.422275 2.08335 -0.363596 1.51536 -0.321282C-0.0405585 -0.669258 -0.177681 -0.895258 0.992727 -0.983205C1.30983 -1.00365 1.74662 -0.997326 1.9756 -1.04063C2.10699 -1.067 2.28648 -1.08208 2.49977 -1.08469C2.71306 -1.0873 2.95424 -1.07736 3.20441 -1.05565C3.99395 -0.998706 4.73398 -0.985313 5.35024 -1.01682C5.93021 -1.05852 6.64113 -1.05685 7.41446 -1.01198C7.98272 -0.941601 8.48219 -1.04098 8.97363 -1.06969C9.46508 -1.09841 9.86837 -1.14998 10.6359 -1.07283C10.7765 -1.05747 10.916 -1.04825 11.0439 -1.04587C11.1717 -1.0435 11.2844 -1.04804 11.3734 -1.05914C12.1978 -1.10882 13.1815 -1.1036 14.2448 -1.0439C15.8755 -0.985151 17.4056 -0.982949 18.7818 -1.03737C19.6057 -1.08498 20.3081 -1.16942 20.8616 -1.28739C21.0125 -1.32685 21.2365 -1.35051 21.5123 -1.3561C22.897 -1.33149 24.4005 -1.23885 25.9259 -1.08417C26.5006 -1.02219 27.0745 -0.97316 27.6354 -0.938133C28.7883 -0.860321 29.9033 -0.816719 30.9474 -0.808616C32.4647 -0.807332 34.0444 -0.777394 35.6725 -0.719072C36.6773 -0.686599 37.6454 -0.674614 38.5655 -0.683246C39.5112 -0.687315 40.5209 -0.662545 41.5718 -0.60951C42.6168 -0.566293 43.5377 -0.591193 44.2236 -0.6812C44.4494 -0.729701 44.6313 -0.787295 44.7659 -0.852908C43.2358 -1.06641 41.6533 -1.17492 40.3371 -1.15657C39.8372 -1.17072 39.422 -1.15644 38.8952 -1.2396L38.8788 -1.21178C38.7739 -1.19373 38.6158 -1.18948 38.4344 -1.19982C38.2531 -1.21017 38.0612 -1.23439 37.8954 -1.26788C37.9581 -1.37359 38.0174 -1.47373 38.0603 -1.54606C39.0631 -1.5333 40.0369 -1.53433 40.9765 -1.54917C41.7686 -1.57051 42.8438 -1.38359 43.5294 -1.45395C44.8666 -1.36596 45.718 -1.48745 46.9172 -1.45239C48.1164 -1.41734 49.4371 -1.30153 50.6363 -1.26648C51.6827 -1.24724 52.6987 -1.24306 53.6787 -1.25395C54.017 -1.26924 54.4069 -1.26566 54.8246 -1.24341C55.4118 -1.20156 55.958 -1.19454 56.4005 -1.22318C56.843 -1.25181 57.1639 -1.31494 57.3266 -1.40532C57.1734 -1.48998 56.9671 -1.59914 56.7291 -1.71222C57.1669 -1.80514 57.8317 -1.84426 58.6251 -1.82377L59.7461 -1.82826C60.0431 -1.82581 60.2702 -1.85093 60.3803 -1.89842C60.4905 -1.94592 60.4753 -2.01215 60.3379 -2.08343C58.2123 -2.44224 58.134 -2.48179 56.574 -2.251L54.5026 -2.35824L54.5375 -2.35989ZM82.5544 -1.37425L82.3965 -1.3938L82.5544 -1.37425ZM340.687 36.8011L340.651 36.8622L340.69 36.7955L341.038 36.8385L341.061 36.7995L340.687 36.8011ZM290.267 9.97707C289.776 9.9103 289.28 9.84892 288.783 9.79329C288.653 9.78467 288.531 9.78272 288.428 9.78761C288.324 9.79251 288.243 9.80409 288.19 9.8214C288.151 9.88816 288.428 9.93448 288.681 9.96576C288.999 10.0079 289.325 10.0346 289.623 10.0433C289.922 10.0519 290.183 10.0421 290.38 10.015L290.665 9.9906L290.267 9.97707ZM37.4467 26.249C37.7699 26.2602 38.0764 26.262 38.3585 26.2544C39.6105 26.2004 40.8091 26.1219 42.0926 26.0719C43.712 25.9448 45.5729 25.8931 47.6054 25.9186C48.3995 25.9311 49.0704 25.8899 49.5397 25.7998C49.8207 25.7515 50.1833 25.7233 50.6055 25.7169L55.9788 25.5702C56.311 25.5397 56.5981 25.4971 56.8336 25.4431C56.36 25.3845 56.0443 25.3454 55.8549 25.3219C55.4619 25.3153 55.1241 25.3332 54.8753 25.3738C54.6081 25.4426 54.1565 25.4698 53.6101 25.45C53.0586 25.4337 52.5207 25.4249 51.9992 25.4237C51.0144 25.4271 50.023 25.4417 49.0349 25.4507C48.6505 25.6419 47.5158 25.5552 46.5442 25.5363L45.7936 25.5449C43.3401 25.6441 40.9964 25.7805 38.774 25.9535C38.3445 25.9828 37.9744 26.0295 37.6753 26.0921C37.5626 26.141 37.5264 26.202 37.5697 26.2702L37.4119 26.2506L37.4467 26.249ZM147.011 44.5366C147.606 44.5496 148.226 44.5764 148.861 44.6164C149.35 44.6574 149.828 44.6822 150.275 44.69C152.777 44.7329 155.385 44.8319 158.063 44.9857C158.413 45.009 158.749 45.0205 159.059 45.0196L161.251 44.9805C161.942 44.9586 161.955 44.9363 161.452 44.6411C161.035 44.5839 160.613 44.5316 160.19 44.4847C159.937 44.4535 159.527 44.4026 159.431 44.4505C158.845 44.581 157.777 44.4964 156.878 44.4688C154.277 44.3974 151.595 44.2922 148.969 44.2058C148.414 44.1847 147.876 44.174 147.361 44.1739C147.042 44.1695 146.75 44.1778 146.499 44.1985C146.426 44.2007 146.365 44.2068 146.319 44.2167C146.274 44.2265 146.245 44.2397 146.236 44.2555C146.227 44.2713 146.237 44.2893 146.265 44.3082C146.293 44.3272 146.339 44.3467 146.4 44.3654C146.615 44.4312 146.864 44.4941 147.137 44.5522L147.011 44.5366ZM166.064 1.69484L168.626 1.65985C168.934 1.65609 169.194 1.6167 169.523 1.63355C171.277 1.68694 172.902 1.67207 174.327 1.58957C174.813 1.5559 175.38 1.54917 175.999 1.56974C177.895 1.63071 179.683 1.63322 181.315 1.57719C182.37 1.56595 183.358 1.52819 184.263 1.46447C184.332 1.44967 184.376 1.42959 184.39 1.40559C184.404 1.38159 184.389 1.35423 184.345 1.32538C184.334 1.30715 184.303 1.28754 184.254 1.26791C184.206 1.24828 184.141 1.22907 184.064 1.21163C183.988 1.1942 183.901 1.17894 183.81 1.1669C183.72 1.15486 183.627 1.14633 183.539 1.14191C182.395 1.05565 181.31 1.02561 180.371 1.0542C179.501 1.08842 178.564 1.09843 177.575 1.08408C176.628 1.08031 175.986 1.19187 174.817 1.10674C174.322 1.07871 173.886 1.08794 173.581 1.13288C172.969 1.20738 172.114 1.21152 171.168 1.14458C170.603 1.1107 170.062 1.09617 169.567 1.10154C168.367 1.12603 167.219 1.17503 166.107 1.22238C165.756 1.23334 165.381 1.23485 164.986 1.22688L159.415 1.13417C158.077 1.10573 156.741 1.07172 155.428 1.05832C154.353 1.02922 153.354 1.03833 152.464 1.08534C151.515 1.13475 150.48 1.15481 149.378 1.14514C147.668 1.17218 145.967 1.18252 144.106 1.17889C142.918 1.18112 141.703 1.17389 140.462 1.15162C139.834 1.12295 139.302 1.1463 138.966 1.21716C138.762 1.2755 138.282 1.22797 137.883 1.21443C135.757 1.08394 133.763 1.05302 132.041 1.12383C131.821 1.13536 131.579 1.13954 131.322 1.13629C129.662 1.13385 127.944 1.11804 126.351 1.11786C125.932 1.12336 125.537 1.13846 125.172 1.16296C125.211 1.20293 125.323 1.24625 125.483 1.28393C125.644 1.32162 125.841 1.35078 126.035 1.36537C127.541 1.47703 128.996 1.53602 130.337 1.53986C132.57 1.52563 134.908 1.55761 137.329 1.63546C139.207 1.71393 140.919 1.69741 142.339 1.58712C143.448 1.50482 144.892 1.53578 146.421 1.67469C147.076 1.74103 147.711 1.76756 148.24 1.75065C148.749 1.72847 149.334 1.73385 149.959 1.76647C151.277 1.82851 152.545 1.85729 153.737 1.85224C154.903 1.82941 155.991 1.76702 157.188 1.74809C158.385 1.72916 160.209 1.74001 161.685 1.70785C163.161 1.6757 164.621 1.67136 166.064 1.69484ZM59.8917 -1.5594C60.027 -1.38738 60.5058 -1.28031 61.0208 -1.23444C62.7964 -1.03076 64.5518 -0.944089 65.9922 -0.988967C66.7704 -1.05157 67.8077 -1.02747 68.9004 -0.92141C70.1728 -0.811159 71.362 -0.792875 72.2585 -0.86978C72.4782 -0.883218 72.6464 -0.911626 72.7481 -0.952475C72.7679 -0.985856 72.8042 -1.04705 72.8108 -1.05818C72.7165 -1.0864 72.601 -1.11255 72.4731 -1.1346C72.3452 -1.15666 72.2082 -1.17404 72.0729 -1.1854L66.1915 -1.38232L65.1666 -1.42565C63.2946 -1.53918 61.5108 -1.5844 59.8917 -1.5594ZM71.4603 1.16334C72.3783 1.44424 72.3815 1.43867 72.8517 1.50288C75.1204 1.7696 77.3875 1.91359 79.3834 1.9177C79.8269 1.91688 80.2034 1.88977 80.4808 1.83863C80.6236 1.8317 80.7144 1.80968 80.7336 1.77737C80.7527 1.74506 80.6986 1.70508 80.583 1.66616L79.8531 1.46826C78.5275 1.38259 77.221 1.31452 75.9413 1.26445C74.4514 1.20533 73.1311 1.20305 71.5865 1.17897L71.4603 1.16334ZM146.901 43.2927C147.756 43.6793 147.759 43.6738 149.191 43.7735C150.189 43.8442 151.157 43.8856 152.066 43.8967C153.177 43.9089 154.317 43.9305 155.424 43.9483C155.695 43.9606 155.924 43.9504 156.068 43.9196C156.211 43.8888 156.259 43.8397 156.201 43.7817C156.056 43.7188 155.828 43.6579 155.556 43.609C155.283 43.5601 154.982 43.526 154.7 43.5122L154.096 43.5031C153.361 43.4838 152.599 43.4551 151.89 43.4508C151.43 43.4669 150.897 43.4545 150.332 43.4146C149.768 43.3748 149.188 43.3086 148.637 43.2212L146.901 43.2927ZM76.0276 -1.05391C76.2559 -0.986962 76.5142 -0.922837 76.7956 -0.863245C77.8849 -0.698072 79.0379 -0.604261 80.0284 -0.600201C80.4968 -0.58997 80.9251 -0.626502 81.4019 -0.573414C82.2572 -0.502475 83.086 -0.464687 83.8437 -0.462095C83.8437 -0.462095 84.0562 -0.477585 84.1259 -0.480893L84.271 -0.725689C83.9123 -0.782398 83.5383 -0.828727 83.166 -0.862543C81.9169 -0.927671 80.6895 -0.972197 79.4653 -1.02229C78.2412 -1.07238 77.8143 -1.09539 77.0138 -1.1169C76.6566 -1.10508 76.3263 -1.08398 76.0276 -1.05391ZM48.9773 29.379L50.6119 29.8801C51.1409 29.9236 51.635 29.9315 52.0192 29.9026C52.4034 29.8736 52.6565 29.8094 52.7401 29.7197C52.8748 29.6777 52.8883 29.6155 52.7777 29.5462C52.6672 29.4768 52.4413 29.4057 52.1474 29.3477C51.8644 29.2789 51.5415 29.2173 51.1985 29.1666C50.8555 29.1159 50.4997 29.0772 50.1533 29.0529L48.9773 29.379ZM62.5874 26.8843C61.5182 26.7994 60.4957 26.7647 59.5977 26.7828C59.032 26.8325 58.2655 26.8166 57.4553 26.7384C55.9819 26.5825 54.5616 26.5394 53.494 26.6181C53.494 26.6181 53.4544 26.6848 53.2735 26.7042C53.0925 26.7236 53.8102 26.7707 53.968 26.7902C55.1257 26.8381 56.29 26.8748 57.2965 26.8919C57.9213 26.8912 58.5823 26.907 59.2679 26.939C60.2113 26.9885 61.106 27.0045 61.917 26.9864C61.917 26.9864 62.2307 26.9716 62.5841 26.8899L62.5874 26.8843ZM176.768 0.787086C176.258 0.692724 175.704 0.616032 175.148 0.562766C174.593 0.509502 174.051 0.481051 173.562 0.479535C173.187 0.474612 172.884 0.499526 172.701 0.55034C172.517 0.601152 172.464 0.674966 172.548 0.760107C172.927 0.807027 173.432 0.869587 173.716 0.904777C174.701 0.901333 175.541 0.856087 176.768 0.787086ZM272.362 8.73896C271.953 8.663 271.501 8.60492 271.06 8.57136C270.618 8.5378 270.204 8.53011 269.866 8.54916C269.691 8.55743 269.81 8.64374 269.78 8.69382C269.761 8.70517 269.761 8.71929 269.781 8.7347C269.8 8.75011 269.839 8.76624 269.892 8.7814C269.946 8.79656 270.012 8.81019 270.084 8.82086C270.156 8.83154 270.231 8.83887 270.302 8.84208C270.746 8.87481 271.166 8.88455 271.523 8.87044C271.881 8.85632 272.164 8.8188 272.349 8.76122L272.362 8.73896ZM278.767 9.82486C278.704 9.78003 278.569 9.73332 278.387 9.69327C278.206 9.65322 277.989 9.62252 277.778 9.60682C277.405 9.60471 277.066 9.61714 276.774 9.64364C276.457 9.66408 276.685 9.79386 277.114 9.87086C277.295 9.90176 277.489 9.92587 277.68 9.94126C277.871 9.95665 278.054 9.9629 278.214 9.95952C278.374 9.95613 278.506 9.9432 278.601 9.92176C278.696 9.90031 278.751 9.87095 278.761 9.83599L278.767 9.82486ZM92.6548 -0.577147C91.6992 -0.737304 90.9637 -0.697012 90.1547 -0.761383C89.3457 -0.825751 89.1463 -0.832525 89.2547 -0.729521C89.3631 -0.626518 89.9177 -0.647407 90.265 -0.604396C90.7342 -0.547325 91.2062 -0.514554 91.6283 -0.50974C92.0503 -0.504927 92.4058 -0.528267 92.6548 -0.577147ZM291.78 26.5216C291.274 26.4857 290.778 26.4603 290.3 26.4458C290.237 26.4607 290.198 26.4802 290.184 26.5031C290.17 26.526 290.183 26.5519 290.221 26.5793C290.221 26.5793 290.545 26.6613 290.734 26.6847C291.432 26.7652 291.467 26.65 291.78 26.5216ZM363.318 41.4432C363.66 41.5514 363.82 41.6249 364.094 41.6768C364.22 41.6948 364.35 41.7079 364.475 41.7151C364.6 41.7222 364.716 41.7233 364.815 41.7183C364.936 41.6871 364.964 41.6395 364.894 41.5848C364.894 41.5848 364.545 41.4878 364.412 41.4833C364.033 41.4604 363.666 41.4469 363.318 41.4432ZM76.3894 -1.49283C75.6632 -1.58276 74.9686 -1.66879 74.4659 -1.56384C75.6189 -1.4509 75.619 -1.45089 76.3894 -1.49283ZM88.1498 -0.466244C87.4166 -0.658576 86.9864 -0.67603 86.6344 -0.653931C86.5596 -0.648366 86.5101 -0.63596 86.4934 -0.618597C86.4767 -0.601236 86.4937 -0.579861 86.5418 -0.557705C86.59 -0.535549 86.6666 -0.51382 86.7602 -0.495801C86.8537 -0.477783 86.9592 -0.464458 87.0604 -0.457843C87.4428 -0.452306 87.8075 -0.455117 88.1498 -0.466244ZM125.886 -0.384915C125.903 -0.412733 125.922 -0.446114 125.733 -0.469574C125.683 -0.481484 125.625 -0.491725 125.564 -0.499275C125.503 -0.506825 125.442 -0.511412 125.386 -0.51258C125.386 -0.51258 125.366 -0.479197 125.353 -0.456943L125.886 -0.384915ZM152.091 45.7988L151.669 45.8242L151.859 45.8477L152.359 45.8618L152.091 45.7988ZM300.577 9.39079C300.419 9.37124 300.261 9.35169 300.238 9.39064C300.205 9.39666 300.184 9.40537 300.178 9.41602C300.172 9.42666 300.18 9.43894 300.202 9.45183C300.202 9.45183 300.423 9.47921 300.518 9.49094L300.577 9.39079ZM275.993 9.70227C275.89 9.70004 275.796 9.70265 275.718 9.70994L275.698 9.74332L276.014 9.78242L275.993 9.70227ZM61.7536 17.656C61.6317 17.6357 61.5025 17.6197 61.3748 17.6091L61.2169 17.5895C61.2169 17.5895 61.3865 17.6463 61.4812 17.6581C61.576 17.6698 61.6523 17.6554 61.7536 17.656Z" fill="#DF6951"/>
</svg>
